# xmcd
#
# Track frame offsets:
# 150
# 11807
# 26362
# 39300
# 49425
# 61350
# 73725
# 83680
# 93805
# 105465
# 116455
# 139322
# 152767
# 164730
# 176110
# 188372
# 200342
# 211065
# 226552
# 239777
# 261565
# 279190
# 294675
#
# Disc length: 4407 seconds
#
#
# Revision: 1
# Processed by: cddbd v1.5.2PL0 Copyright (c) Steve Scherf et al.
# Submitted via: MfcCDDB 1.28 
#
DISCID=44113517
DTITLE=Unknown Artist 44113517 - Unknown Album 44113517
DYEAR=2000
DGENRE=Unknown Genre 44113517
TTITLE0=Track01
TTITLE1=Track02
TTITLE2=Track03
TTITLE3=Track04
TTITLE4=Track05
TTITLE5=Track06
TTITLE6=Track07
TTITLE7=Track08
TTITLE8=Track09
TTITLE9=Track10
TTITLE10=Track11
TTITLE11=Track12
TTITLE12=Track13
TTITLE13=Track14
TTITLE14=Track15
TTITLE15=Track16
TTITLE16=Track17
TTITLE17=Track18
TTITLE18=Track19
TTITLE19=Track20
TTITLE20=Track21
TTITLE21=Track22
TTITLE22=Track23
EXTD=
EXTT0=
EXTT1=
EXTT2=
EXTT3=
EXTT4=
EXTT5=
EXTT6=
EXTT7=
EXTT8=
EXTT9=
EXTT10=
EXTT11=
EXTT12=
EXTT13=
EXTT14=
EXTT15=
EXTT16=
EXTT17=
EXTT18=
EXTT19=
EXTT20=
EXTT21=
EXTT22=
PLAYORDER=
